# Blender 3.4.1
# www.blender.org
o Plane.001
v -0.000000 2.000006 20.000000
v 0.000000 -1.999994 20.000000
v -0.000000 1.999994 -20.000000
v 0.000000 -2.000006 -20.000000
v -0.000000 1.999995 -19.603960
v -0.000000 1.999995 -19.207920
v -0.000000 1.999995 -18.811882
v -0.000000 1.999995 -18.415842
v -0.000000 1.999995 -18.019802
v -0.000000 1.999995 -17.623764
v -0.000000 1.999995 -17.227724
v -0.000000 1.999995 -16.831684
v -0.000000 1.999995 -16.435644
v -0.000000 1.999995 -16.039604
v -0.000000 1.999996 -15.643567
v -0.000000 1.999996 -15.247527
v -0.000000 1.999996 -14.851487
v -0.000000 1.999996 -14.455448
v -0.000000 1.999996 -14.059409
v -0.000000 1.999996 -13.663369
v -0.000000 1.999996 -13.267329
v -0.000000 1.999996 -12.871290
v -0.000000 1.999996 -12.475251
v -0.000000 1.999997 -12.079211
v -0.000000 1.999997 -11.683171
v -0.000000 1.999997 -11.287132
v -0.000000 1.999997 -10.891093
v -0.000000 1.999997 -10.495053
v -0.000000 1.999997 -10.099013
v -0.000000 1.999997 -9.702974
v -0.000000 1.999997 -9.306935
v -0.000000 1.999997 -8.910895
v -0.000000 1.999998 -8.514855
v -0.000000 1.999998 -8.118816
v -0.000000 1.999998 -7.722776
v -0.000000 1.999998 -7.326737
v -0.000000 1.999998 -6.930697
v -0.000000 1.999998 -6.534658
v -0.000000 1.999998 -6.138618
v -0.000000 1.999998 -5.742579
v -0.000000 1.999998 -5.346539
v -0.000000 1.999999 -4.950500
v -0.000000 1.999999 -4.554460
v -0.000000 1.999999 -4.158420
v -0.000000 1.999999 -3.762380
v -0.000000 1.999999 -3.366341
v -0.000000 1.999999 -2.970301
v -0.000000 1.999999 -2.574261
v -0.000000 1.999999 -2.178222
v -0.000000 2.000000 -1.782182
v -0.000000 2.000000 -1.386142
v -0.000000 2.000000 -0.990103
v -0.000000 2.000000 -0.594063
v -0.000000 2.000000 -0.198024
v -0.000000 2.000000 0.198016
v -0.000000 2.000000 0.594056
v -0.000000 2.000000 0.990095
v -0.000000 2.000000 1.386135
v -0.000000 2.000000 1.782175
v -0.000000 2.000001 2.178215
v -0.000000 2.000001 2.574254
v -0.000000 2.000001 2.970294
v -0.000000 2.000001 3.366333
v -0.000000 2.000001 3.762373
v -0.000000 2.000001 4.158413
v -0.000000 2.000001 4.554453
v -0.000000 2.000001 4.950492
v -0.000000 2.000001 5.346532
v -0.000000 2.000002 5.742571
v -0.000000 2.000002 6.138611
v -0.000000 2.000002 6.534650
v -0.000000 2.000002 6.930690
v -0.000000 2.000002 7.326729
v -0.000000 2.000002 7.722769
v -0.000000 2.000002 8.118808
v -0.000000 2.000002 8.514848
v -0.000000 2.000003 8.910887
v -0.000000 2.000003 9.306927
v -0.000000 2.000003 9.702966
v -0.000000 2.000003 10.099006
v -0.000000 2.000003 10.495046
v -0.000000 2.000003 10.891085
v -0.000000 2.000003 11.287125
v -0.000000 2.000003 11.683164
v -0.000000 2.000003 12.079204
v -0.000000 2.000004 12.475243
v -0.000000 2.000004 12.871283
v -0.000000 2.000004 13.267322
v -0.000000 2.000004 13.663362
v -0.000000 2.000004 14.059401
v -0.000000 2.000004 14.455441
v -0.000000 2.000004 14.851480
v -0.000000 2.000004 15.247519
v -0.000000 2.000005 15.643559
v -0.000000 2.000005 16.039598
v -0.000000 2.000005 16.435640
v -0.000000 2.000005 16.831680
v -0.000000 2.000005 17.227718
v -0.000000 2.000005 17.623760
v -0.000000 2.000005 18.019800
v -0.000000 2.000005 18.415840
v -0.000000 2.000005 18.811878
v -0.000000 2.000005 19.207920
v -0.000000 2.000005 19.603960
v 0.000000 -1.999995 19.603960
v 0.000000 -1.999995 19.207920
v 0.000000 -1.999995 18.811882
v 0.000000 -1.999995 18.415842
v 0.000000 -1.999995 18.019802
v 0.000000 -1.999995 17.623764
v 0.000000 -1.999995 17.227724
v 0.000000 -1.999995 16.831684
v 0.000000 -1.999995 16.435644
v 0.000000 -1.999995 16.039604
v 0.000000 -1.999996 15.643567
v 0.000000 -1.999996 15.247527
v 0.000000 -1.999996 14.851487
v 0.000000 -1.999996 14.455448
v 0.000000 -1.999996 14.059409
v 0.000000 -1.999996 13.663369
v 0.000000 -1.999996 13.267329
v 0.000000 -1.999996 12.871290
v 0.000000 -1.999996 12.475251
v 0.000000 -1.999997 12.079211
v 0.000000 -1.999997 11.683171
v 0.000000 -1.999997 11.287132
v 0.000000 -1.999997 10.891093
v 0.000000 -1.999997 10.495053
v 0.000000 -1.999997 10.099013
v 0.000000 -1.999997 9.702974
v 0.000000 -1.999997 9.306935
v 0.000000 -1.999997 8.910895
v 0.000000 -1.999998 8.514855
v 0.000000 -1.999998 8.118816
v 0.000000 -1.999998 7.722776
v 0.000000 -1.999998 7.326737
v 0.000000 -1.999998 6.930697
v 0.000000 -1.999998 6.534658
v 0.000000 -1.999998 6.138618
v 0.000000 -1.999998 5.742579
v 0.000000 -1.999998 5.346539
v 0.000000 -1.999999 4.950500
v 0.000000 -1.999999 4.554460
v 0.000000 -1.999999 4.158420
v 0.000000 -1.999999 3.762380
v 0.000000 -1.999999 3.366341
v 0.000000 -1.999999 2.970301
v 0.000000 -1.999999 2.574261
v 0.000000 -1.999999 2.178222
v 0.000000 -2.000000 1.782182
v 0.000000 -2.000000 1.386142
v 0.000000 -2.000000 0.990103
v 0.000000 -2.000000 0.594063
v 0.000000 -2.000000 0.198024
v 0.000000 -2.000000 -0.198016
v 0.000000 -2.000000 -0.594056
v 0.000000 -2.000000 -0.990095
v 0.000000 -2.000000 -1.386135
v 0.000000 -2.000000 -1.782175
v 0.000000 -2.000001 -2.178215
v 0.000000 -2.000001 -2.574254
v 0.000000 -2.000001 -2.970294
v 0.000000 -2.000001 -3.366333
v 0.000000 -2.000001 -3.762373
v 0.000000 -2.000001 -4.158413
v 0.000000 -2.000001 -4.554453
v 0.000000 -2.000001 -4.950492
v 0.000000 -2.000001 -5.346532
v 0.000000 -2.000002 -5.742571
v 0.000000 -2.000002 -6.138611
v 0.000000 -2.000002 -6.534650
v 0.000000 -2.000002 -6.930690
v 0.000000 -2.000002 -7.326729
v 0.000000 -2.000002 -7.722769
v 0.000000 -2.000002 -8.118808
v 0.000000 -2.000002 -8.514848
v 0.000000 -2.000003 -8.910887
v 0.000000 -2.000003 -9.306927
v 0.000000 -2.000003 -9.702966
v 0.000000 -2.000003 -10.099006
v 0.000000 -2.000003 -10.495046
v 0.000000 -2.000003 -10.891085
v 0.000000 -2.000003 -11.287125
v 0.000000 -2.000003 -11.683164
v 0.000000 -2.000003 -12.079204
v 0.000000 -2.000004 -12.475243
v 0.000000 -2.000004 -12.871283
v 0.000000 -2.000004 -13.267322
v 0.000000 -2.000004 -13.663362
v 0.000000 -2.000004 -14.059401
v 0.000000 -2.000004 -14.455441
v 0.000000 -2.000004 -14.851480
v 0.000000 -2.000004 -15.247519
v 0.000000 -2.000005 -15.643559
v 0.000000 -2.000005 -16.039598
v 0.000000 -2.000005 -16.435640
v 0.000000 -2.000005 -16.831680
v 0.000000 -2.000005 -17.227718
v 0.000000 -2.000005 -17.623760
v 0.000000 -2.000005 -18.019800
v 0.000000 -2.000005 -18.415840
v 0.000000 -2.000005 -18.811878
v 0.000000 -2.000005 -19.207920
v 0.000000 -2.000005 -19.603960
vn 1.0000 -0.0000 -0.0000
vt 0.971075 0.477344
vt 0.971075 0.572262
vt 0.021895 0.477344
vt 0.021895 0.572262
vt 0.031293 0.477344
vt 0.040691 0.477344
vt 0.050089 0.477344
vt 0.059487 0.477344
vt 0.068884 0.477344
vt 0.078282 0.477344
vt 0.087680 0.477344
vt 0.097078 0.477344
vt 0.106476 0.477344
vt 0.115874 0.477344
vt 0.125271 0.477344
vt 0.134669 0.477344
vt 0.144067 0.477344
vt 0.153465 0.477344
vt 0.162863 0.477344
vt 0.172260 0.477344
vt 0.181658 0.477344
vt 0.191056 0.477344
vt 0.200454 0.477344
vt 0.209852 0.477344
vt 0.219250 0.477344
vt 0.228647 0.477344
vt 0.238045 0.477344
vt 0.247443 0.477344
vt 0.256841 0.477344
vt 0.266239 0.477344
vt 0.275636 0.477344
vt 0.285034 0.477344
vt 0.294432 0.477344
vt 0.303830 0.477344
vt 0.313228 0.477344
vt 0.322625 0.477344
vt 0.332023 0.477344
vt 0.341421 0.477344
vt 0.350819 0.477344
vt 0.360217 0.477344
vt 0.369614 0.477344
vt 0.379012 0.477344
vt 0.388410 0.477344
vt 0.397808 0.477344
vt 0.407206 0.477344
vt 0.416604 0.477344
vt 0.426001 0.477344
vt 0.435399 0.477344
vt 0.444797 0.477344
vt 0.454195 0.477344
vt 0.463593 0.477344
vt 0.472990 0.477344
vt 0.482388 0.477344
vt 0.491786 0.477344
vt 0.501184 0.477344
vt 0.510582 0.477344
vt 0.519979 0.477344
vt 0.529377 0.477344
vt 0.538775 0.477344
vt 0.548173 0.477344
vt 0.557571 0.477344
vt 0.566969 0.477344
vt 0.576366 0.477344
vt 0.585764 0.477344
vt 0.595162 0.477344
vt 0.604560 0.477344
vt 0.613958 0.477344
vt 0.623355 0.477344
vt 0.632753 0.477344
vt 0.642151 0.477344
vt 0.651549 0.477344
vt 0.660947 0.477344
vt 0.670344 0.477344
vt 0.679742 0.477344
vt 0.689140 0.477344
vt 0.698538 0.477344
vt 0.707936 0.477344
vt 0.717334 0.477344
vt 0.726731 0.477344
vt 0.736129 0.477344
vt 0.745527 0.477344
vt 0.754925 0.477344
vt 0.764323 0.477344
vt 0.773720 0.477344
vt 0.783118 0.477344
vt 0.792516 0.477344
vt 0.801914 0.477344
vt 0.811312 0.477344
vt 0.820710 0.477344
vt 0.830107 0.477344
vt 0.839505 0.477344
vt 0.848903 0.477344
vt 0.858301 0.477344
vt 0.867699 0.477344
vt 0.877096 0.477344
vt 0.886494 0.477344
vt 0.895892 0.477344
vt 0.905290 0.477344
vt 0.914688 0.477344
vt 0.924086 0.477344
vt 0.933483 0.477344
vt 0.942881 0.477344
vt 0.952279 0.477344
vt 0.961677 0.477344
vt 0.961677 0.572262
vt 0.952279 0.572262
vt 0.942881 0.572262
vt 0.933483 0.572262
vt 0.924086 0.572262
vt 0.914688 0.572262
vt 0.905290 0.572262
vt 0.895892 0.572262
vt 0.886494 0.572262
vt 0.877096 0.572262
vt 0.867699 0.572262
vt 0.858301 0.572262
vt 0.848903 0.572262
vt 0.839505 0.572262
vt 0.830107 0.572262
vt 0.820710 0.572262
vt 0.811312 0.572262
vt 0.801914 0.572262
vt 0.792516 0.572262
vt 0.783118 0.572262
vt 0.773721 0.572262
vt 0.764323 0.572262
vt 0.754925 0.572262
vt 0.745527 0.572262
vt 0.736129 0.572262
vt 0.726732 0.572262
vt 0.717334 0.572262
vt 0.707936 0.572262
vt 0.698538 0.572262
vt 0.689140 0.572262
vt 0.679742 0.572262
vt 0.670345 0.572262
vt 0.660947 0.572262
vt 0.651549 0.572262
vt 0.642151 0.572262
vt 0.632753 0.572262
vt 0.623356 0.572262
vt 0.613958 0.572262
vt 0.604560 0.572262
vt 0.595162 0.572262
vt 0.585764 0.572262
vt 0.576366 0.572262
vt 0.566969 0.572262
vt 0.557571 0.572262
vt 0.548173 0.572262
vt 0.538775 0.572262
vt 0.529377 0.572262
vt 0.519980 0.572262
vt 0.510582 0.572262
vt 0.501184 0.572262
vt 0.491786 0.572262
vt 0.482388 0.572262
vt 0.472991 0.572262
vt 0.463593 0.572262
vt 0.454195 0.572262
vt 0.444797 0.572262
vt 0.435399 0.572262
vt 0.426002 0.572262
vt 0.416604 0.572262
vt 0.407206 0.572262
vt 0.397808 0.572262
vt 0.388410 0.572262
vt 0.379012 0.572262
vt 0.369615 0.572262
vt 0.360217 0.572262
vt 0.350819 0.572262
vt 0.341421 0.572262
vt 0.332023 0.572262
vt 0.322626 0.572262
vt 0.313228 0.572262
vt 0.303830 0.572262
vt 0.294432 0.572262
vt 0.285034 0.572262
vt 0.275636 0.572262
vt 0.266239 0.572262
vt 0.256841 0.572262
vt 0.247443 0.572262
vt 0.238045 0.572262
vt 0.228647 0.572262
vt 0.219250 0.572262
vt 0.209852 0.572262
vt 0.200454 0.572262
vt 0.191056 0.572262
vt 0.181658 0.572262
vt 0.172260 0.572262
vt 0.162863 0.572262
vt 0.153465 0.572262
vt 0.144067 0.572262
vt 0.134669 0.572262
vt 0.125271 0.572262
vt 0.115874 0.572262
vt 0.106476 0.572262
vt 0.097078 0.572262
vt 0.087680 0.572262
vt 0.078282 0.572262
vt 0.068884 0.572262
vt 0.059487 0.572262
vt 0.050089 0.572262
vt 0.040691 0.572262
vt 0.031293 0.572262
s 1
f 5/5/1 204/204/1 4/4/1 3/3/1
f 1/1/1 2/2/1 105/105/1 104/104/1
f 104/104/1 105/105/1 106/106/1 103/103/1
f 103/103/1 106/106/1 107/107/1 102/102/1
f 102/102/1 107/107/1 108/108/1 101/101/1
f 101/101/1 108/108/1 109/109/1 100/100/1
f 100/100/1 109/109/1 110/110/1 99/99/1
f 99/99/1 110/110/1 111/111/1 98/98/1
f 98/98/1 111/111/1 112/112/1 97/97/1
f 97/97/1 112/112/1 113/113/1 96/96/1
f 96/96/1 113/113/1 114/114/1 95/95/1
f 95/95/1 114/114/1 115/115/1 94/94/1
f 94/94/1 115/115/1 116/116/1 93/93/1
f 93/93/1 116/116/1 117/117/1 92/92/1
f 92/92/1 117/117/1 118/118/1 91/91/1
f 91/91/1 118/118/1 119/119/1 90/90/1
f 90/90/1 119/119/1 120/120/1 89/89/1
f 89/89/1 120/120/1 121/121/1 88/88/1
f 88/88/1 121/121/1 122/122/1 87/87/1
f 87/87/1 122/122/1 123/123/1 86/86/1
f 86/86/1 123/123/1 124/124/1 85/85/1
f 85/85/1 124/124/1 125/125/1 84/84/1
f 84/84/1 125/125/1 126/126/1 83/83/1
f 83/83/1 126/126/1 127/127/1 82/82/1
f 82/82/1 127/127/1 128/128/1 81/81/1
f 81/81/1 128/128/1 129/129/1 80/80/1
f 80/80/1 129/129/1 130/130/1 79/79/1
f 79/79/1 130/130/1 131/131/1 78/78/1
f 78/78/1 131/131/1 132/132/1 77/77/1
f 77/77/1 132/132/1 133/133/1 76/76/1
f 76/76/1 133/133/1 134/134/1 75/75/1
f 75/75/1 134/134/1 135/135/1 74/74/1
f 74/74/1 135/135/1 136/136/1 73/73/1
f 73/73/1 136/136/1 137/137/1 72/72/1
f 72/72/1 137/137/1 138/138/1 71/71/1
f 71/71/1 138/138/1 139/139/1 70/70/1
f 70/70/1 139/139/1 140/140/1 69/69/1
f 69/69/1 140/140/1 141/141/1 68/68/1
f 68/68/1 141/141/1 142/142/1 67/67/1
f 67/67/1 142/142/1 143/143/1 66/66/1
f 66/66/1 143/143/1 144/144/1 65/65/1
f 65/65/1 144/144/1 145/145/1 64/64/1
f 64/64/1 145/145/1 146/146/1 63/63/1
f 63/63/1 146/146/1 147/147/1 62/62/1
f 62/62/1 147/147/1 148/148/1 61/61/1
f 61/61/1 148/148/1 149/149/1 60/60/1
f 60/60/1 149/149/1 150/150/1 59/59/1
f 59/59/1 150/150/1 151/151/1 58/58/1
f 58/58/1 151/151/1 152/152/1 57/57/1
f 57/57/1 152/152/1 153/153/1 56/56/1
f 56/56/1 153/153/1 154/154/1 55/55/1
f 55/55/1 154/154/1 155/155/1 54/54/1
f 54/54/1 155/155/1 156/156/1 53/53/1
f 53/53/1 156/156/1 157/157/1 52/52/1
f 52/52/1 157/157/1 158/158/1 51/51/1
f 51/51/1 158/158/1 159/159/1 50/50/1
f 50/50/1 159/159/1 160/160/1 49/49/1
f 49/49/1 160/160/1 161/161/1 48/48/1
f 48/48/1 161/161/1 162/162/1 47/47/1
f 47/47/1 162/162/1 163/163/1 46/46/1
f 46/46/1 163/163/1 164/164/1 45/45/1
f 45/45/1 164/164/1 165/165/1 44/44/1
f 44/44/1 165/165/1 166/166/1 43/43/1
f 43/43/1 166/166/1 167/167/1 42/42/1
f 42/42/1 167/167/1 168/168/1 41/41/1
f 41/41/1 168/168/1 169/169/1 40/40/1
f 40/40/1 169/169/1 170/170/1 39/39/1
f 39/39/1 170/170/1 171/171/1 38/38/1
f 38/38/1 171/171/1 172/172/1 37/37/1
f 37/37/1 172/172/1 173/173/1 36/36/1
f 36/36/1 173/173/1 174/174/1 35/35/1
f 35/35/1 174/174/1 175/175/1 34/34/1
f 34/34/1 175/175/1 176/176/1 33/33/1
f 33/33/1 176/176/1 177/177/1 32/32/1
f 32/32/1 177/177/1 178/178/1 31/31/1
f 31/31/1 178/178/1 179/179/1 30/30/1
f 30/30/1 179/179/1 180/180/1 29/29/1
f 29/29/1 180/180/1 181/181/1 28/28/1
f 28/28/1 181/181/1 182/182/1 27/27/1
f 27/27/1 182/182/1 183/183/1 26/26/1
f 26/26/1 183/183/1 184/184/1 25/25/1
f 25/25/1 184/184/1 185/185/1 24/24/1
f 24/24/1 185/185/1 186/186/1 23/23/1
f 23/23/1 186/186/1 187/187/1 22/22/1
f 22/22/1 187/187/1 188/188/1 21/21/1
f 21/21/1 188/188/1 189/189/1 20/20/1
f 20/20/1 189/189/1 190/190/1 19/19/1
f 19/19/1 190/190/1 191/191/1 18/18/1
f 18/18/1 191/191/1 192/192/1 17/17/1
f 17/17/1 192/192/1 193/193/1 16/16/1
f 16/16/1 193/193/1 194/194/1 15/15/1
f 15/15/1 194/194/1 195/195/1 14/14/1
f 14/14/1 195/195/1 196/196/1 13/13/1
f 13/13/1 196/196/1 197/197/1 12/12/1
f 12/12/1 197/197/1 198/198/1 11/11/1
f 11/11/1 198/198/1 199/199/1 10/10/1
f 10/10/1 199/199/1 200/200/1 9/9/1
f 9/9/1 200/200/1 201/201/1 8/8/1
f 8/8/1 201/201/1 202/202/1 7/7/1
f 7/7/1 202/202/1 203/203/1 6/6/1
f 6/6/1 203/203/1 204/204/1 5/5/1
